<svg xmlns="http://www.w3.org/2000/svg" fill="none" viewBox="0 0 159 48" height="48" width="159">
<rect fill="#1F1F1F" rx="8" height="48" width="159"></rect>
<path fill="white" d="M51.836 11.146H55.092C55.6933 11.146 56.214 11.2487 56.654 11.454C57.094 11.6593 57.4533 11.9417 57.732 12.301C58.0107 12.653 58.216 13.0673 58.348 13.544C58.4873 14.0207 58.557 14.5303 58.557 15.073C58.557 15.6157 58.4873 16.1253 58.348 16.602C58.216 17.0787 58.0107 17.4967 57.732 17.856C57.4533 18.208 57.094 18.4867 56.654 18.692C56.214 18.8973 55.6933 19 55.092 19H51.836V11.146ZM53.211 17.878H54.564C55.0993 17.878 55.5357 17.8083 55.873 17.669C56.2177 17.5223 56.4853 17.3243 56.676 17.075C56.874 16.8183 57.006 16.5213 57.072 16.184C57.1453 15.8393 57.182 15.469 57.182 15.073C57.182 14.677 57.1453 14.3103 57.072 13.973C57.006 13.6283 56.874 13.3313 56.676 13.082C56.4853 12.8253 56.2177 12.6273 55.873 12.488C55.5357 12.3413 55.0993 12.268 54.564 12.268H53.211V17.878ZM62.2055 19.154C61.7508 19.154 61.3438 19.0807 60.9845 18.934C60.6325 18.78 60.3318 18.571 60.0825 18.307C59.8405 18.043 59.6535 17.7277 59.5215 17.361C59.3968 16.9943 59.3345 16.591 59.3345 16.151C59.3345 15.7183 59.3968 15.3187 59.5215 14.952C59.6535 14.5853 59.8405 14.27 60.0825 14.006C60.3318 13.742 60.6325 13.5367 60.9845 13.39C61.3438 13.236 61.7508 13.159 62.2055 13.159C62.6601 13.159 63.0635 13.236 63.4155 13.39C63.7748 13.5367 64.0755 13.742 64.3175 14.006C64.5668 14.27 64.7538 14.5853 64.8785 14.952C65.0105 15.3187 65.0765 15.7183 65.0765 16.151C65.0765 16.591 65.0105 16.9943 64.8785 17.361C64.7538 17.7277 64.5668 18.043 64.3175 18.307C64.0755 18.571 63.7748 18.78 63.4155 18.934C63.0635 19.0807 62.6601 19.154 62.2055 19.154ZM62.2055 18.164C62.4841 18.164 62.7261 18.1053 62.9315 17.988C63.1368 17.8707 63.3055 17.7167 63.4375 17.526C63.5695 17.3353 63.6648 17.1227 63.7235 16.888C63.7895 16.646 63.8225 16.4003 63.8225 16.151C63.8225 15.909 63.7895 15.667 63.7235 15.425C63.6648 15.183 63.5695 14.9703 63.4375 14.787C63.3055 14.5963 63.1368 14.4423 62.9315 14.325C62.7261 14.2077 62.4841 14.149 62.2055 14.149C61.9268 14.149 61.6848 14.2077 61.4795 14.325C61.2741 14.4423 61.1055 14.5963 60.9735 14.787C60.8415 14.9703 60.7425 15.183 60.6765 15.425C60.6178 15.667 60.5885 15.909 60.5885 16.151C60.5885 16.4003 60.6178 16.646 60.6765 16.888C60.7425 17.1227 60.8415 17.3353 60.9735 17.526C61.1055 17.7167 61.2741 17.8707 61.4795 17.988C61.6848 18.1053 61.9268 18.164 62.2055 18.164ZM65.602 13.313H66.933L68.044 17.559H68.066L69.133 13.313H70.398L71.421 17.559H71.443L72.598 13.313H73.874L72.092 19H70.805L69.749 14.776H69.727L68.682 19H67.362L65.602 13.313ZM74.6805 13.313H75.8685V14.149L75.8905 14.171C76.0812 13.8557 76.3305 13.61 76.6385 13.434C76.9465 13.2507 77.2875 13.159 77.6615 13.159C78.2848 13.159 78.7762 13.3203 79.1355 13.643C79.4948 13.9657 79.6745 14.4497 79.6745 15.095V19H78.4205V15.425C78.4058 14.9777 78.3105 14.655 78.1345 14.457C77.9585 14.2517 77.6835 14.149 77.3095 14.149C77.0968 14.149 76.9062 14.1893 76.7375 14.27C76.5688 14.3433 76.4258 14.4497 76.3085 14.589C76.1912 14.721 76.0995 14.8787 76.0335 15.062C75.9675 15.2453 75.9345 15.4397 75.9345 15.645V19H74.6805V13.313ZM81.0299 11.146H82.2839V19H81.0299V11.146ZM86.2572 19.154C85.8026 19.154 85.3956 19.0807 85.0362 18.934C84.6842 18.78 84.3836 18.571 84.1342 18.307C83.8922 18.043 83.7052 17.7277 83.5732 17.361C83.4486 16.9943 83.3862 16.591 83.3862 16.151C83.3862 15.7183 83.4486 15.3187 83.5732 14.952C83.7052 14.5853 83.8922 14.27 84.1342 14.006C84.3836 13.742 84.6842 13.5367 85.0362 13.39C85.3956 13.236 85.8026 13.159 86.2572 13.159C86.7119 13.159 87.1152 13.236 87.4672 13.39C87.8266 13.5367 88.1272 13.742 88.3692 14.006C88.6186 14.27 88.8056 14.5853 88.9302 14.952C89.0622 15.3187 89.1282 15.7183 89.1282 16.151C89.1282 16.591 89.0622 16.9943 88.9302 17.361C88.8056 17.7277 88.6186 18.043 88.3692 18.307C88.1272 18.571 87.8266 18.78 87.4672 18.934C87.1152 19.0807 86.7119 19.154 86.2572 19.154ZM86.2572 18.164C86.5359 18.164 86.7779 18.1053 86.9832 17.988C87.1886 17.8707 87.3572 17.7167 87.4892 17.526C87.6212 17.3353 87.7166 17.1227 87.7752 16.888C87.8412 16.646 87.8742 16.4003 87.8742 16.151C87.8742 15.909 87.8412 15.667 87.7752 15.425C87.7166 15.183 87.6212 14.9703 87.4892 14.787C87.3572 14.5963 87.1886 14.4423 86.9832 14.325C86.7779 14.2077 86.5359 14.149 86.2572 14.149C85.9786 14.149 85.7366 14.2077 85.5312 14.325C85.3259 14.4423 85.1572 14.5963 85.0252 14.787C84.8932 14.9703 84.7942 15.183 84.7282 15.425C84.6696 15.667 84.6402 15.909 84.6402 16.151C84.6402 16.4003 84.6696 16.646 84.7282 16.888C84.7942 17.1227 84.8932 17.3353 85.0252 17.526C85.1572 17.7167 85.3259 17.8707 85.5312 17.988C85.7366 18.1053 85.9786 18.164 86.2572 18.164ZM94.9337 17.735C94.9337 17.889 94.9521 17.999 94.9887 18.065C95.0327 18.131 95.1134 18.164 95.2307 18.164C95.2674 18.164 95.3114 18.164 95.3627 18.164C95.4141 18.164 95.4727 18.1567 95.5387 18.142V19.011C95.4947 19.0257 95.4361 19.0403 95.3627 19.055C95.2967 19.077 95.2271 19.0953 95.1537 19.11C95.0804 19.1247 95.0071 19.1357 94.9337 19.143C94.8604 19.1503 94.7981 19.154 94.7467 19.154C94.4901 19.154 94.2774 19.1027 94.1087 19C93.9401 18.8973 93.8301 18.7177 93.7787 18.461C93.5294 18.703 93.2214 18.879 92.8547 18.989C92.4954 19.099 92.1471 19.154 91.8097 19.154C91.5531 19.154 91.3074 19.1173 91.0727 19.044C90.8381 18.978 90.6291 18.879 90.4457 18.747C90.2697 18.6077 90.1267 18.4353 90.0167 18.23C89.9141 18.0173 89.8627 17.7717 89.8627 17.493C89.8627 17.141 89.9251 16.855 90.0497 16.635C90.1817 16.415 90.3504 16.2427 90.5557 16.118C90.7684 15.9933 91.0031 15.9053 91.2597 15.854C91.5237 15.7953 91.7877 15.7513 92.0517 15.722C92.2791 15.678 92.4954 15.6487 92.7007 15.634C92.9061 15.612 93.0857 15.579 93.2397 15.535C93.4011 15.491 93.5257 15.425 93.6137 15.337C93.7091 15.2417 93.7567 15.1023 93.7567 14.919C93.7567 14.7577 93.7164 14.6257 93.6357 14.523C93.5624 14.4203 93.4671 14.3433 93.3497 14.292C93.2397 14.2333 93.1151 14.1967 92.9757 14.182C92.8364 14.16 92.7044 14.149 92.5797 14.149C92.2277 14.149 91.9381 14.2223 91.7107 14.369C91.4834 14.5157 91.3551 14.743 91.3257 15.051H90.0717C90.0937 14.6843 90.1817 14.38 90.3357 14.138C90.4897 13.896 90.6841 13.7017 90.9187 13.555C91.1607 13.4083 91.4321 13.3057 91.7327 13.247C92.0334 13.1883 92.3414 13.159 92.6567 13.159C92.9354 13.159 93.2104 13.1883 93.4817 13.247C93.7531 13.3057 93.9951 13.401 94.2077 13.533C94.4277 13.665 94.6037 13.8373 94.7357 14.05C94.8677 14.2553 94.9337 14.5083 94.9337 14.809V17.735ZM93.6797 16.151C93.4891 16.2757 93.2544 16.3527 92.9757 16.382C92.6971 16.404 92.4184 16.4407 92.1397 16.492C92.0077 16.514 91.8794 16.547 91.7547 16.591C91.6301 16.6277 91.5201 16.6827 91.4247 16.756C91.3294 16.822 91.2524 16.9137 91.1937 17.031C91.1424 17.141 91.1167 17.2767 91.1167 17.438C91.1167 17.5773 91.1571 17.6947 91.2377 17.79C91.3184 17.8853 91.4137 17.9623 91.5237 18.021C91.6411 18.0723 91.7657 18.109 91.8977 18.131C92.0371 18.153 92.1617 18.164 92.2717 18.164C92.4111 18.164 92.5614 18.1457 92.7227 18.109C92.8841 18.0723 93.0344 18.01 93.1737 17.922C93.3204 17.834 93.4414 17.724 93.5367 17.592C93.6321 17.4527 93.6797 17.284 93.6797 17.086V16.151ZM101.64 19H100.452V18.23H100.43C100.261 18.56 100.016 18.7983 99.693 18.945C99.3704 19.0843 99.0294 19.154 98.67 19.154C98.2227 19.154 97.8304 19.077 97.493 18.923C97.163 18.7617 96.888 18.5453 96.668 18.274C96.448 18.0027 96.283 17.6837 96.173 17.317C96.063 16.943 96.008 16.5433 96.008 16.118C96.008 15.6047 96.0777 15.161 96.217 14.787C96.3564 14.413 96.5397 14.105 96.767 13.863C97.0017 13.621 97.2657 13.445 97.559 13.335C97.8597 13.2177 98.164 13.159 98.472 13.159C98.648 13.159 98.8277 13.1773 99.011 13.214C99.1944 13.2433 99.3704 13.2947 99.539 13.368C99.7077 13.4413 99.8617 13.5367 100.001 13.654C100.148 13.764 100.269 13.896 100.364 14.05H100.386V11.146H101.64V19ZM97.262 16.217C97.262 16.459 97.2914 16.6973 97.35 16.932C97.416 17.1667 97.5114 17.3757 97.636 17.559C97.768 17.7423 97.933 17.889 98.131 17.999C98.329 18.109 98.5637 18.164 98.835 18.164C99.1137 18.164 99.352 18.1053 99.55 17.988C99.7554 17.8707 99.9204 17.7167 100.045 17.526C100.177 17.3353 100.272 17.1227 100.331 16.888C100.397 16.646 100.43 16.4003 100.43 16.151C100.43 15.5203 100.287 15.029 100.001 14.677C99.7224 14.325 99.341 14.149 98.857 14.149C98.5637 14.149 98.3144 14.2113 98.109 14.336C97.911 14.4533 97.746 14.611 97.614 14.809C97.4894 14.9997 97.3977 15.2197 97.339 15.469C97.2877 15.711 97.262 15.9603 97.262 16.217ZM108.676 19.154C108.222 19.154 107.815 19.0807 107.455 18.934C107.103 18.78 106.803 18.571 106.553 18.307C106.311 18.043 106.124 17.7277 105.992 17.361C105.868 16.9943 105.805 16.591 105.805 16.151C105.805 15.7183 105.868 15.3187 105.992 14.952C106.124 14.5853 106.311 14.27 106.553 14.006C106.803 13.742 107.103 13.5367 107.455 13.39C107.815 13.236 108.222 13.159 108.676 13.159C109.131 13.159 109.534 13.236 109.886 13.39C110.246 13.5367 110.546 13.742 110.788 14.006C111.038 14.27 111.225 14.5853 111.349 14.952C111.481 15.3187 111.547 15.7183 111.547 16.151C111.547 16.591 111.481 16.9943 111.349 17.361C111.225 17.7277 111.038 18.043 110.788 18.307C110.546 18.571 110.246 18.78 109.886 18.934C109.534 19.0807 109.131 19.154 108.676 19.154ZM108.676 18.164C108.955 18.164 109.197 18.1053 109.402 17.988C109.608 17.8707 109.776 17.7167 109.908 17.526C110.04 17.3353 110.136 17.1227 110.194 16.888C110.26 16.646 110.293 16.4003 110.293 16.151C110.293 15.909 110.26 15.667 110.194 15.425C110.136 15.183 110.04 14.9703 109.908 14.787C109.776 14.5963 109.608 14.4423 109.402 14.325C109.197 14.2077 108.955 14.149 108.676 14.149C108.398 14.149 108.156 14.2077 107.95 14.325C107.745 14.4423 107.576 14.5963 107.444 14.787C107.312 14.9703 107.213 15.183 107.147 15.425C107.089 15.667 107.059 15.909 107.059 16.151C107.059 16.4003 107.089 16.646 107.147 16.888C107.213 17.1227 107.312 17.3353 107.444 17.526C107.576 17.7167 107.745 17.8707 107.95 17.988C108.156 18.1053 108.398 18.164 108.676 18.164ZM112.59 13.313H113.778V14.149L113.8 14.171C113.99 13.8557 114.24 13.61 114.548 13.434C114.856 13.2507 115.197 13.159 115.571 13.159C116.194 13.159 116.685 13.3203 117.045 13.643C117.404 13.9657 117.584 14.4497 117.584 15.095V19H116.33V15.425C116.315 14.9777 116.22 14.655 116.044 14.457C115.868 14.2517 115.593 14.149 115.219 14.149C115.006 14.149 114.815 14.1893 114.647 14.27C114.478 14.3433 114.335 14.4497 114.218 14.589C114.1 14.721 114.009 14.8787 113.943 15.062C113.877 15.2453 113.844 15.4397 113.844 15.645V19H112.59V13.313ZM121.396 13.313H122.342V11.608H123.596V13.313H124.729V14.248H123.596V17.284C123.596 17.416 123.599 17.5297 123.607 17.625C123.621 17.7203 123.647 17.801 123.684 17.867C123.728 17.933 123.79 17.9843 123.871 18.021C123.951 18.0503 124.061 18.065 124.201 18.065C124.289 18.065 124.377 18.065 124.465 18.065C124.553 18.0577 124.641 18.043 124.729 18.021V18.989C124.589 19.0037 124.454 19.0183 124.322 19.033C124.19 19.0477 124.054 19.055 123.915 19.055C123.585 19.055 123.317 19.0257 123.112 18.967C122.914 18.901 122.756 18.8093 122.639 18.692C122.529 18.5673 122.452 18.4133 122.408 18.23C122.371 18.0467 122.349 17.8377 122.342 17.603V14.248H121.396V13.313ZM125.631 11.146H126.885V14.061H126.907C127.061 13.8043 127.288 13.5917 127.589 13.423C127.897 13.247 128.238 13.159 128.612 13.159C129.235 13.159 129.726 13.3203 130.086 13.643C130.445 13.9657 130.625 14.4497 130.625 15.095V19H129.371V15.425C129.356 14.9777 129.261 14.655 129.085 14.457C128.909 14.2517 128.634 14.149 128.26 14.149C128.047 14.149 127.856 14.1893 127.688 14.27C127.519 14.3433 127.376 14.4497 127.259 14.589C127.141 14.721 127.05 14.8787 126.984 15.062C126.918 15.2453 126.885 15.4397 126.885 15.645V19H125.631V11.146ZM135.852 15.656C135.837 15.458 135.793 15.2673 135.72 15.084C135.654 14.9007 135.559 14.743 135.434 14.611C135.317 14.4717 135.17 14.3617 134.994 14.281C134.825 14.193 134.635 14.149 134.422 14.149C134.202 14.149 134 14.1893 133.817 14.27C133.641 14.3433 133.487 14.4497 133.355 14.589C133.23 14.721 133.128 14.8787 133.047 15.062C132.974 15.2453 132.933 15.4433 132.926 15.656H135.852ZM132.926 16.481C132.926 16.701 132.955 16.9137 133.014 17.119C133.08 17.3243 133.175 17.504 133.3 17.658C133.425 17.812 133.582 17.9367 133.773 18.032C133.964 18.12 134.191 18.164 134.455 18.164C134.822 18.164 135.115 18.087 135.335 17.933C135.562 17.7717 135.731 17.5333 135.841 17.218H137.029C136.963 17.526 136.849 17.801 136.688 18.043C136.527 18.285 136.332 18.4903 136.105 18.659C135.878 18.8203 135.621 18.9413 135.335 19.022C135.056 19.11 134.763 19.154 134.455 19.154C134.008 19.154 133.612 19.0807 133.267 18.934C132.922 18.7873 132.629 18.582 132.387 18.318C132.152 18.054 131.973 17.7387 131.848 17.372C131.731 17.0053 131.672 16.602 131.672 16.162C131.672 15.7587 131.734 15.3773 131.859 15.018C131.991 14.6513 132.174 14.3323 132.409 14.061C132.651 13.7823 132.941 13.5623 133.278 13.401C133.615 13.2397 133.997 13.159 134.422 13.159C134.869 13.159 135.269 13.2543 135.621 13.445C135.98 13.6283 136.277 13.874 136.512 14.182C136.747 14.49 136.915 14.8457 137.018 15.249C137.128 15.645 137.157 16.0557 137.106 16.481H132.926Z"></path>
<path fill="white" d="M55.806 24.148H58.2L63.15 37H60.738L59.532 33.598H54.402L53.196 37H50.874L55.806 24.148ZM55.014 31.888H58.938L57.012 26.362H56.958L55.014 31.888ZM64.1399 27.694H66.0839V28.954H66.1199C66.4079 28.414 66.8099 28.03 67.3259 27.802C67.8419 27.562 68.3999 27.442 68.9999 27.442C69.7319 27.442 70.3679 27.574 70.9079 27.838C71.4599 28.09 71.9159 28.444 72.2759 28.9C72.6359 29.344 72.9059 29.866 73.0859 30.466C73.2659 31.066 73.3559 31.708 73.3559 32.392C73.3559 33.016 73.2719 33.622 73.1039 34.21C72.9479 34.798 72.7019 35.32 72.3659 35.776C72.0419 36.22 71.6279 36.58 71.1239 36.856C70.6199 37.12 70.0259 37.252 69.3419 37.252C69.0419 37.252 68.7419 37.222 68.4419 37.162C68.1419 37.114 67.8539 37.03 67.5779 36.91C67.3019 36.79 67.0439 36.64 66.8039 36.46C66.5759 36.268 66.3839 36.046 66.2279 35.794H66.1919V40.438H64.1399V27.694ZM71.3039 32.356C71.3039 31.936 71.2499 31.528 71.1419 31.132C71.0339 30.736 70.8719 30.388 70.6559 30.088C70.4399 29.776 70.1699 29.53 69.8459 29.35C69.5219 29.158 69.1499 29.062 68.7299 29.062C67.8659 29.062 67.2119 29.362 66.7679 29.962C66.3359 30.562 66.1199 31.36 66.1199 32.356C66.1199 32.824 66.1739 33.262 66.2819 33.67C66.4019 34.066 66.5759 34.408 66.8039 34.696C67.0319 34.984 67.3019 35.212 67.6139 35.38C67.9379 35.548 68.3099 35.632 68.7299 35.632C69.1979 35.632 69.5939 35.536 69.9179 35.344C70.2419 35.152 70.5059 34.906 70.7099 34.606C70.9259 34.294 71.0759 33.946 71.1599 33.562C71.2559 33.166 71.3039 32.764 71.3039 32.356ZM75.1438 27.694H77.0878V28.954H77.1238C77.4118 28.414 77.8138 28.03 78.3298 27.802C78.8458 27.562 79.4038 27.442 80.0038 27.442C80.7358 27.442 81.3718 27.574 81.9118 27.838C82.4638 28.09 82.9198 28.444 83.2798 28.9C83.6398 29.344 83.9098 29.866 84.0898 30.466C84.2698 31.066 84.3598 31.708 84.3598 32.392C84.3598 33.016 84.2758 33.622 84.1078 34.21C83.9518 34.798 83.7058 35.32 83.3698 35.776C83.0458 36.22 82.6318 36.58 82.1278 36.856C81.6238 37.12 81.0298 37.252 80.3458 37.252C80.0458 37.252 79.7458 37.222 79.4458 37.162C79.1458 37.114 78.8578 37.03 78.5818 36.91C78.3058 36.79 78.0478 36.64 77.8078 36.46C77.5798 36.268 77.3878 36.046 77.2318 35.794H77.1958V40.438H75.1438V27.694ZM82.3078 32.356C82.3078 31.936 82.2538 31.528 82.1458 31.132C82.0378 30.736 81.8758 30.388 81.6598 30.088C81.4438 29.776 81.1738 29.53 80.8498 29.35C80.5258 29.158 80.1538 29.062 79.7338 29.062C78.8698 29.062 78.2158 29.362 77.7718 29.962C77.3398 30.562 77.1238 31.36 77.1238 32.356C77.1238 32.824 77.1778 33.262 77.2858 33.67C77.4058 34.066 77.5798 34.408 77.8078 34.696C78.0358 34.984 78.3058 35.212 78.6178 35.38C78.9418 35.548 79.3138 35.632 79.7338 35.632C80.2018 35.632 80.5978 35.536 80.9218 35.344C81.2458 35.152 81.5098 34.906 81.7138 34.606C81.9298 34.294 82.0798 33.946 82.1638 33.562C82.2598 33.166 82.3078 32.764 82.3078 32.356ZM92.8674 32.716C92.8674 33.208 92.9514 33.628 93.1194 33.976C93.2874 34.324 93.5214 34.612 93.8214 34.84C94.1214 35.056 94.4634 35.218 94.8474 35.326C95.2434 35.422 95.6694 35.47 96.1254 35.47C96.6174 35.47 97.0374 35.416 97.3854 35.308C97.7334 35.188 98.0154 35.038 98.2314 34.858C98.4474 34.678 98.6034 34.474 98.6994 34.246C98.7954 34.006 98.8434 33.766 98.8434 33.526C98.8434 33.034 98.7294 32.674 98.5014 32.446C98.2854 32.206 98.0454 32.038 97.7814 31.942C97.3254 31.774 96.7914 31.618 96.1794 31.474C95.5794 31.318 94.8354 31.12 93.9474 30.88C93.3954 30.736 92.9334 30.55 92.5614 30.322C92.2014 30.082 91.9134 29.818 91.6974 29.53C91.4814 29.242 91.3254 28.936 91.2294 28.612C91.1454 28.288 91.1034 27.958 91.1034 27.622C91.1034 26.974 91.2354 26.416 91.4994 25.948C91.7754 25.468 92.1354 25.072 92.5794 24.76C93.0234 24.448 93.5274 24.22 94.0914 24.076C94.6554 23.92 95.2254 23.842 95.8014 23.842C96.4734 23.842 97.1034 23.932 97.6914 24.112C98.2914 24.28 98.8134 24.538 99.2574 24.886C99.7134 25.234 100.073 25.666 100.337 26.182C100.601 26.686 100.733 27.274 100.733 27.946H98.4834C98.4234 27.118 98.1414 26.536 97.6374 26.2C97.1334 25.852 96.4914 25.678 95.7114 25.678C95.4474 25.678 95.1774 25.708 94.9014 25.768C94.6254 25.816 94.3734 25.906 94.1454 26.038C93.9174 26.158 93.7254 26.326 93.5694 26.542C93.4254 26.758 93.3534 27.028 93.3534 27.352C93.3534 27.808 93.4914 28.168 93.7674 28.432C94.0554 28.684 94.4274 28.876 94.8834 29.008C94.9314 29.02 95.1174 29.074 95.4414 29.17C95.7774 29.254 96.1494 29.35 96.5574 29.458C96.9654 29.566 97.3614 29.674 97.7454 29.782C98.1414 29.878 98.4234 29.95 98.5914 29.998C99.0114 30.13 99.3774 30.31 99.6894 30.538C100.001 30.766 100.259 31.03 100.463 31.33C100.679 31.618 100.835 31.93 100.931 32.266C101.039 32.602 101.093 32.938 101.093 33.274C101.093 33.994 100.943 34.612 100.643 35.128C100.355 35.632 99.9714 36.046 99.4914 36.37C99.0114 36.694 98.4654 36.928 97.8534 37.072C97.2414 37.228 96.6174 37.306 95.9814 37.306C95.2494 37.306 94.5594 37.216 93.9114 37.036C93.2634 36.856 92.6994 36.58 92.2194 36.208C91.7394 35.836 91.3554 35.362 91.0674 34.786C90.7794 34.198 90.6294 33.508 90.6174 32.716H92.8674ZM101.839 27.694H103.387V24.904H105.439V27.694H107.293V29.224H105.439V34.192C105.439 34.408 105.445 34.594 105.457 34.75C105.481 34.906 105.523 35.038 105.583 35.146C105.655 35.254 105.757 35.338 105.889 35.398C106.021 35.446 106.201 35.47 106.429 35.47C106.573 35.47 106.717 35.47 106.861 35.47C107.005 35.458 107.149 35.434 107.293 35.398V36.982C107.065 37.006 106.843 37.03 106.627 37.054C106.411 37.078 106.189 37.09 105.961 37.09C105.421 37.09 104.983 37.042 104.647 36.946C104.323 36.838 104.065 36.688 103.873 36.496C103.693 36.292 103.567 36.04 103.495 35.74C103.435 35.44 103.399 35.098 103.387 34.714V29.224H101.839V27.694ZM113.035 37.252C112.291 37.252 111.625 37.132 111.037 36.892C110.461 36.64 109.969 36.298 109.561 35.866C109.165 35.434 108.859 34.918 108.643 34.318C108.439 33.718 108.337 33.058 108.337 32.338C108.337 31.63 108.439 30.976 108.643 30.376C108.859 29.776 109.165 29.26 109.561 28.828C109.969 28.396 110.461 28.06 111.037 27.82C111.625 27.568 112.291 27.442 113.035 27.442C113.779 27.442 114.439 27.568 115.015 27.82C115.603 28.06 116.095 28.396 116.491 28.828C116.899 29.26 117.205 29.776 117.409 30.376C117.625 30.976 117.733 31.63 117.733 32.338C117.733 33.058 117.625 33.718 117.409 34.318C117.205 34.918 116.899 35.434 116.491 35.866C116.095 36.298 115.603 36.64 115.015 36.892C114.439 37.132 113.779 37.252 113.035 37.252ZM113.035 35.632C113.491 35.632 113.887 35.536 114.223 35.344C114.559 35.152 114.835 34.9 115.051 34.588C115.267 34.276 115.423 33.928 115.519 33.544C115.627 33.148 115.681 32.746 115.681 32.338C115.681 31.942 115.627 31.546 115.519 31.15C115.423 30.754 115.267 30.406 115.051 30.106C114.835 29.794 114.559 29.542 114.223 29.35C113.887 29.158 113.491 29.062 113.035 29.062C112.579 29.062 112.183 29.158 111.847 29.35C111.511 29.542 111.235 29.794 111.019 30.106C110.803 30.406 110.641 30.754 110.533 31.15C110.437 31.546 110.389 31.942 110.389 32.338C110.389 32.746 110.437 33.148 110.533 33.544C110.641 33.928 110.803 34.276 111.019 34.588C111.235 34.9 111.511 35.152 111.847 35.344C112.183 35.536 112.579 35.632 113.035 35.632ZM119.439 27.694H121.365V29.494H121.401C121.461 29.242 121.575 28.996 121.743 28.756C121.923 28.516 122.133 28.3 122.373 28.108C122.625 27.904 122.901 27.742 123.201 27.622C123.501 27.502 123.807 27.442 124.119 27.442C124.359 27.442 124.521 27.448 124.605 27.46C124.701 27.472 124.797 27.484 124.893 27.496V29.476C124.749 29.452 124.599 29.434 124.443 29.422C124.299 29.398 124.155 29.386 124.011 29.386C123.663 29.386 123.333 29.458 123.021 29.602C122.721 29.734 122.457 29.938 122.229 30.214C122.001 30.478 121.821 30.808 121.689 31.204C121.557 31.6 121.491 32.056 121.491 32.572V37H119.439V27.694ZM131.841 31.528C131.817 31.204 131.745 30.892 131.625 30.592C131.517 30.292 131.361 30.034 131.157 29.818C130.965 29.59 130.725 29.41 130.437 29.278C130.161 29.134 129.849 29.062 129.501 29.062C129.141 29.062 128.811 29.128 128.511 29.26C128.223 29.38 127.971 29.554 127.755 29.782C127.551 29.998 127.383 30.256 127.251 30.556C127.131 30.856 127.065 31.18 127.053 31.528H131.841ZM127.053 32.878C127.053 33.238 127.101 33.586 127.197 33.922C127.305 34.258 127.461 34.552 127.665 34.804C127.869 35.056 128.127 35.26 128.439 35.416C128.751 35.56 129.123 35.632 129.555 35.632C130.155 35.632 130.635 35.506 130.995 35.254C131.367 34.99 131.643 34.6 131.823 34.084H133.767C133.659 34.588 133.473 35.038 133.209 35.434C132.945 35.83 132.627 36.166 132.255 36.442C131.883 36.706 131.463 36.904 130.995 37.036C130.539 37.18 130.059 37.252 129.555 37.252C128.823 37.252 128.175 37.132 127.611 36.892C127.047 36.652 126.567 36.316 126.171 35.884C125.787 35.452 125.493 34.936 125.289 34.336C125.097 33.736 125.001 33.076 125.001 32.356C125.001 31.696 125.103 31.072 125.307 30.484C125.523 29.884 125.823 29.362 126.207 28.918C126.603 28.462 127.077 28.102 127.629 27.838C128.181 27.574 128.805 27.442 129.501 27.442C130.233 27.442 130.887 27.598 131.463 27.91C132.051 28.21 132.537 28.612 132.921 29.116C133.305 29.62 133.581 30.202 133.749 30.862C133.929 31.51 133.977 32.182 133.893 32.878H127.053Z"></path>
<path fill="white" d="M31.3568 8C29.7511 8.06542 27.8055 9.03905 26.654 10.348C25.6188 11.5105 24.7153 13.3658 24.9589 15.1447C26.7516 15.2809 28.5783 14.2607 29.6942 12.9511C30.8079 11.639 31.562 9.81826 31.3568 8ZM30.903 38.9586C33.0786 38.9193 34.4565 37.0411 35.7887 35.1513C37.2483 33.0813 37.8929 31.0743 37.989 30.775C37.9944 30.7584 37.998 30.747 38 30.7412C37.999 30.7408 37.9963 30.7397 37.992 30.738C37.7827 30.6554 33.7558 29.0662 33.7158 24.4725C33.6764 20.679 36.7931 18.7919 37.1362 18.5842C37.1481 18.577 37.1567 18.5718 37.1617 18.5686C35.2857 15.9057 32.3647 15.5406 31.324 15.4989C29.8037 15.3497 28.3288 15.9137 27.1237 16.3746C26.3579 16.6675 25.7011 16.9187 25.2108 16.9187C24.6651 16.9187 23.9903 16.6587 23.233 16.367C22.2417 15.9851 21.1091 15.5488 19.9398 15.5697C17.2315 15.609 14.7323 17.0997 13.3375 19.4556C10.5209 24.1996 12.6152 31.2291 15.3591 35.0757C16.7022 36.9569 18.2993 39.0743 20.3996 38.998C21.3374 38.9615 22.0048 38.6856 22.695 38.4003C23.4927 38.0706 24.3209 37.7283 25.6321 37.7283C26.881 37.7283 27.6708 38.06 28.4306 38.3791C29.1572 38.6843 29.8562 38.9779 30.903 38.9586Z" clip-rule="evenodd" fill-rule="evenodd"></path>
</svg>
